<svg xmlns="http://www.w3.org/2000/svg" viewBox="0 0 466.971 466.971"><path d="M398.585 68.387C354.485 24.287 295.852 0 233.485 0s-121 24.287-165.099 68.387S0 171.119 0 233.486s24.287 121 68.386 165.1c44.1 44.099 102.733 68.386 165.099 68.386s121-24.287 165.1-68.386c44.1-44.1 68.386-102.733 68.386-165.1s-24.286-120.999-68.386-165.099zM101.619 412.732c15.574-26.958 39.298-48.75 67.455-61.91 18.634 14.334 40.733 22.649 64.41 22.649 23.646 0 45.717-8.292 64.336-22.59 28.166 13.182 51.9 34.961 67.488 61.883-37.977 28.048-83.733 43.207-131.822 43.207-48.108 0-93.881-15.17-131.867-43.239zm11.687-178.572c.409 11.978 2.021 23.585 4.696 34.651a17.859 17.859 0 0 1-9.119-3.579 17.87 17.87 0 0 1-6.924-11.901c-1.135-8.402 3.764-16.237 11.347-19.171zm248.192 5.86a17.872 17.872 0 0 1 3.519 13.312c-1.135 8.408-7.948 14.664-16.043 15.476 2.676-11.066 4.287-22.674 4.696-34.651a17.85 17.85 0 0 1 7.828 5.863zm-93.654 16.47c-1.657 0-3.172-1.252-3.602-2.969l-5.227-21.031h32.271l-12.4 24h-11.042zm35.824-24h5.823l-12.4 24h-5.823l12.4-24zm17.821.741v18.407c0 2.352-1.467 4.852-4.185 4.852h-7.832l12.017-23.259zM124.344 221.49c.372-9.114 1.505-17.827 3.414-26h211.46c1.909 8.172 3.042 16.885 3.414 26H124.344zm21.145 11h27.037l-12.4 24h-10.454c-2.717 0-4.183-2.5-4.183-4.852V232.49zm39.418 0h5.823l-12.4 24h-5.823l12.4-24zm18.204 0h4.849l-5.226 21.023c-.431 1.725-1.946 2.977-3.603 2.977h-8.421l12.401-24zm-68.413-68h197.58l3.19 20H131.507l3.191-20zm1.754-11l7.497-47h179.076l7.497 47h-194.07zm-1.963 79v19.148c0 8.889 6.669 15.852 15.183 15.852h49.46c6.741 0 12.61-4.65 14.276-11.316l5.886-23.684h28.386l5.888 23.691c1.665 6.658 7.534 11.309 14.275 11.309h49.46c8.515 0 15.185-6.963 15.185-15.852V232.49h10.229c-1.508 57.386-32.42 105.791-74.778 123.134a42.49 42.49 0 0 0 4.838-8.95c5.159-13.097 3.434-27.752-4.615-39.202-9.81-13.956-22.125-21.642-34.675-21.642s-24.865 7.686-34.675 21.642c-8.048 11.45-9.773 26.105-4.615 39.202a42.506 42.506 0 0 0 4.841 8.954c-42.359-17.34-73.272-65.748-74.78-123.137h10.231zm128.054 110.152c-3.87 9.826-12.334 16.989-22.641 19.161-.304.064-.609.113-.914.168V336.24a5.5 5.5 0 0 0-11 0v25.731c-.304-.055-.609-.104-.913-.168-10.307-2.172-18.771-9.335-22.642-19.161-3.856-9.79-2.625-20.304 3.379-28.845 7.691-10.942 16.81-16.968 25.676-16.968s17.985 6.025 25.676 16.968c6.004 8.541 7.235 19.055 3.379 28.845zm128.264 48.165a226.826 226.826 0 0 1-16.735 15.144c-15.868-26.825-39.326-48.774-67.103-62.839 17.358-16.233 30.954-38.066 38.921-63.239.44.02.881.044 1.319.044 14.275-.001 26.748-10.582 28.71-25.112 1.036-7.674-.978-15.292-5.671-21.451-4.15-5.446-9.957-9.171-16.551-10.677-.295-9.482-1.388-18.575-3.228-27.186h48.021a5.5 5.5 0 0 0 0-11h-51.882l-13.458-84.366a5.5 5.5 0 0 0-5.431-4.634H139.257a5.5 5.5 0 0 0-5.431 4.634l-13.458 84.366h-51.88a5.5 5.5 0 0 0 0 11h48.019c-1.84 8.612-2.933 17.705-3.229 27.186-6.594 1.507-12.4 5.231-16.55 10.677-4.694 6.159-6.708 13.777-5.671 21.451 1.037 7.674 5 14.484 11.159 19.178 5.102 3.888 11.204 5.938 17.511 5.938.452 0 .905-.025 1.359-.046 7.956 25.139 21.524 46.947 38.848 63.173-27.771 14.047-51.221 36.008-67.078 62.869a226.544 226.544 0 0 1-16.691-15.108C34.143 348.784 11 292.913 11 233.486s23.143-115.299 65.165-157.32C118.187 34.143 174.058 11 233.485 11c59.428 0 115.299 23.143 157.321 65.165 42.022 42.021 65.165 97.893 65.165 157.32s-23.142 115.299-65.164 157.322z"/><path d="M233.49 311.543c-8.56 0-16.472 2.355-21.164 6.302a5.5 5.5 0 0 0 7.081 8.418c2.041-1.716 6.953-3.72 14.083-3.72 7.124 0 12.034 2.004 14.075 3.72a5.48 5.48 0 0 0 3.537 1.291 5.5 5.5 0 0 0 3.543-9.709c-4.692-3.946-12.6-6.302-21.155-6.302z"/></svg>